<svg xmlns="http://www.w3.org/2000/svg" width="361" height="259" viewBox="0 0 361 259"><g><g><path fill="#00487d" d="M339.716 237.14h1.26l13.69 19.86h6.186l-14.411-20.28c6.965-.6 11.348-5.52 11.348-12.48 0-10.2-7.986-12.48-16.572-12.48h-6.545V257h5.044zm0-20.7h1.5c6.065 0 11.53.72 11.53 8.16 0 7.02-5.765 8.1-11.47 8.1h-1.56zm-21.076 23.04h-15.312l7.746-18.12zm1.981 4.68l5.344 12.84h5.585l-20.356-47.4-20.896 47.4h5.525l5.464-12.84zm-51.819-7.02h1.261l13.69 19.86h6.185l-14.41-20.28c6.965-.6 11.348-5.52 11.348-12.48 0-10.2-7.986-12.48-16.573-12.48h-6.545V257h5.044zm0-20.7h1.501c6.065 0 11.53.72 11.53 8.16 0 7.02-5.765 8.1-11.47 8.1h-1.56zm-29.242 17.82v4.68h13.45c0 8.4-8.286 14.16-16.152 14.16-4.743 0-9.547-2.46-12.85-5.76-3.362-3.42-5.283-7.98-5.283-12.78 0-10.2 8.166-18.9 18.493-18.9 6.665 0 11.77 3.18 15.552 8.52l3.663-3.42c-4.804-6.24-11.229-9.78-19.154-9.78-13.03 0-23.598 10.56-23.598 23.52 0 12.72 10.568 23.28 23.297 23.28 6.305 0 12.61-2.76 16.753-7.56 4.143-4.8 4.804-9.84 4.683-15.96zm-39.27 5.22h-15.31l7.745-18.12zm1.982 4.68l5.344 12.84h5.584l-20.355-47.4-20.896 47.4h5.524l5.465-12.84zM111.484 257h5.044v-34.86l35.306 36.9v-47.28h-5.044v35.04l-35.306-36.96zm-30.563 0h23.477v-4.68H85.965v-17.76h17.893v-4.68H85.965v-13.44h18.433v-4.68H80.921zm-23.358-40.56h1.862c5.884 0 11.828.54 11.828 7.92 0 6.48-4.743 8.16-10.327 8.16h-3.363zm0 20.76h3.663c3.783 0 7.686-.48 10.748-3 2.822-2.34 4.323-6.06 4.323-9.72 0-4.02-1.741-7.98-5.104-10.32-3.302-2.28-7.325-2.4-11.228-2.4h-7.446V257h5.044zm-33.685-21.54c10.388 0 18.554 8.46 18.554 18.72 0 10.2-8.286 18.72-18.554 18.72-10.268 0-18.554-8.52-18.554-18.72 0-10.26 8.166-18.72 18.554-18.72zm0-4.68c-12.91 0-23.598 10.5-23.598 23.46 0 13.02 10.688 23.34 23.598 23.34 12.91 0 23.598-10.32 23.598-23.34 0-12.96-10.689-23.46-23.598-23.46z"/></g><g><path fill="#fff" d="M13 94.5C13 52.803 46.803 19 88.5 19S164 52.803 164 94.5 130.197 170 88.5 170 13 136.197 13 94.5z"/></g><g><path fill="#00487d" d="M290.841 114.074H233.36l29.079-69.378zm7.439 17.919l20.062 49.161h20.964L262.889-.33l-78.444 181.484h20.738l20.513-49.161zM88.868 22.873c38.997 0 69.654 32.39 69.654 71.674 0 39.054-31.108 71.675-69.654 71.675-38.546 0-69.653-32.621-69.653-71.675 0-39.283 30.656-71.675 69.653-71.675zm0-17.92C40.404 4.954.28 45.157.28 94.778c0 49.85 40.124 89.364 88.588 89.364 48.465 0 88.589-39.513 88.589-89.364 0-49.621-40.124-89.823-88.589-89.823z"/></g></g></svg>